<?xml version="1.0" encoding="UTF-8"?>
<!DOCTYPE svg PUBLIC "-//W3C//DTD SVG 1.1//EN" "http://www.w3.org/Graphics/SVG/1.1/DTD/svg11.dtd">
<!-- Creator: CorelDRAW 2018 (64 Bit) -->
<svg xmlns="http://www.w3.org/2000/svg" xml:space="preserve" width="18mm" height="18.5mm" version="1.1" style="shape-rendering:geometricPrecision; text-rendering:geometricPrecision; image-rendering:optimizeQuality; fill-rule:evenodd; clip-rule:evenodd"
viewBox="0 0 1800 1850"
 xmlns:xlink="http://www.w3.org/1999/xlink"
 xmlns:dc="http://purl.org/dc/elements/1.1/"
 xmlns:cc="http://creativecommons.org/ns#"
 xmlns:rdf="http://www.w3.org/1999/02/22-rdf-syntax-ns#"
 xmlns:svg="http://www.w3.org/2000/svg"
 xmlns:sodipodi="http://sodipodi.sourceforge.net/DTD/sodipodi-0.dtd"
 xmlns:inkscape="http://www.inkscape.org/namespaces/inkscape"
 inkscape:version="1.0 (4035a4fb49, 2020-05-01)"
 sodipodi:docname="logo - Copy.svg">
 <defs>
  <style type="text/css">
   <![CDATA[
    .str0 {stroke:#713C8F;stroke-width:20;stroke-miterlimit:22.9256}
    .str1 {stroke:#10846F;stroke-width:22.69;stroke-miterlimit:22.9256}
    .fil2 {fill:none}
    .fil1 {fill:#FEFEFE}
    .fil0 {fill:#713C8F}
    .fil3 {fill:white}
   ]]>
  </style>
 </defs>
 <g id="Capa_x0020_1">
  <metadata id="CorelCorpID_0Corel-Layer"/>
  <sodipodi:namedview inkscape:current-layer="Capa_x0020_1" inkscape:window-maximized="1" inkscape:window-y="-8" inkscape:window-x="-8" inkscape:cy="20.195356" inkscape:cx="-10.93027" inkscape:zoom="7.6688536" showgrid="false" id="namedview25" inkscape:window-height="705" inkscape:window-width="1366" inkscape:pageshadow="2" inkscape:pageopacity="0" guidetolerance="10" gridtolerance="10" objecttolerance="10" borderopacity="1" bordercolor="#666666" pagecolor="#ffffff" inkscape:document-rotation="0"/>
  <ellipse class="fil0 str0" cx="895.09" cy="927.04" rx="886.35" ry="892.97"/>
 </g>
 <g id="Capa_x0020_1_0">
  <metadata id="CorelCorpID_1Corel-Layer"/>
  <path id="path11" class="fil1" d="M417.25 633.14l-0.85 509.69c12.74,276.37 209.09,480.79 467.78,482.89 251.33,2.06 459.42,-208.16 470.11,-474.31 0.25,-98.6 -111.55,-98.3 -112.03,-1.27 -12.53,200.04 -168.12,357.18 -357.76,355.64 -189.65,-1.54 -344.45,-161.21 -355.98,-361.45l1.27 -510.27c0.25,-101.26 -112.34,-102.12 -112.51,-0.91l-0.03 -0.01zm469.96 -4.82l-0.57 237.07c-0.25,101.15 111.77,102.18 112.04,0.92l0.82 -236.37c-1.02,-71.03 54.95,-129.19 120.55,-128.65 65.07,0.53 119.82,58.26 119.65,128.28 -0.25,101.17 114.08,102.18 112.52,0.91 -2.08,-136.35 -103.27,-248.54 -231.87,-249.58 -128.41,-1.05 -232.79,109.74 -233.13,247.43l-0.01 -0.01zm-166.65 -353.67l-1.47 586.8c-0.25,101.23 127.79,102.32 128.05,1.04l1.48 -586.8c0.25,-101.26 -127.79,-102.27 -128.06,-1.04zm-152.84 165.9l-1.47 586.8c-0.25,101.22 125.4,102.29 125.65,1.02l1.47 -586.79c0.25,-101.27 -125.39,-102.25 -125.65,-1.03z"/>
  <g id="g16">
   <path id="path13" class="fil2 str1" d="M1256.13 1041.34c-7.97,-9.42 -14.1,-21.67 -18.61,-33.6 -4.52,-11.93 -7.44,-23.54 -9.1,-40.53 -1.67,-16.99 -2.09,-39.34 -5.86,-58.8 -3.77,-19.47 -10.89,-36.07 -20.46,-57 -9.56,-20.93 -21.55,-46.19 -21.38,-65.77 0.18,-19.57 12.53,-33.44 23.63,-39.84 11.09,-6.39 20.91,-5.32 30.83,-3.88 9.91,1.44 19.93,3.26 34.75,-0.92 14.81,-4.17 34.43,-14.32 49.15,-16.69 14.72,-2.35 24.56,3.07 30.86,6.71 6.29,3.63 9.05,5.47 4.15,7.89 -4.9,2.41 -17.46,5.4 -14.73,4.23 2.73,-1.17 20.73,-6.49 34.67,-7.43 13.95,-0.93 23.83,2.51 32.35,12.57 8.53,10.07 15.7,26.76 14.51,43.93 -1.19,17.18 -10.74,34.84 -17.1,48.81 -6.36,13.97 -9.51,24.26 -12.63,39.31 -3.12,15.06 -6.21,34.88 -8.9,52.77 -2.69,17.87 -4.98,33.8 -7.76,46.7 -2.78,12.91 -6.05,22.81 -10.71,32.43 -4.65,9.61 -10.69,18.94 -16.36,24.14 -2.04,1.88 -4.04,3.22 -5.99,4.11 -0.57,0.25 -1.13,0.48 -1.69,0.65 -2.88,0.94 -5.67,0.94 -8.44,0.26 -5.16,-1.26 -10.17,-4.88 -12.41,-12.15 -2.25,-7.28 -1.74,-18.22 -1.32,-31.04 0.4,-12.81 0.71,-27.51 1.17,-37.45 0.47,-9.95 1.08,-15.16 0.3,-20.06 -0.76,-4.89 -2.9,-9.49 -3.98,-11.89 -1.06,-2.4 -1.06,-2.62 1.7,-3.69 2.76,-1.08 8.27,-2.99 13.61,-2.43 5.36,0.56 10.56,3.63 10.72,3.63 0.15,0 -4.75,-3.05 -10.57,-3.52 -5.82,-0.46 -12.55,1.68 -17.52,5.01 -4.97,3.32 -8.19,7.81 -10.83,13.64 -2.64,5.84 -4.71,13.01 -6.04,21.5 -1.32,8.47 -1.92,18.26 -1.11,29.58 0.8,11.31 3,24.15 4.43,34.23 1.43,10.07 2.08,17.41 -0.66,23.16 -2.73,5.74 -8.85,9.92 -16.84,8.71 -7.97,-1.22 -17.81,-7.83 -25.8,-17.24l-0.03 -0.04z" sodipodi:nodetypes="cccssccccccsccsscccsccssscccccscscccccsscc"/>
   <path id="_1" class="fil3" d="M1256.13 1041.34c-7.97,-9.42 -14.1,-21.67 -18.61,-33.6 -4.52,-11.93 -7.44,-23.54 -9.1,-40.53 -1.67,-16.99 -2.09,-39.34 -5.86,-58.8 -3.77,-19.47 -10.89,-36.07 -20.46,-57 -9.56,-20.93 -21.55,-46.19 -21.38,-65.77 0.18,-19.57 12.53,-33.44 23.63,-39.84 11.09,-6.39 20.91,-5.32 30.83,-3.88 9.91,1.44 19.93,3.26 34.75,-0.92 14.81,-4.17 34.43,-14.32 49.15,-16.69 14.72,-2.35 24.56,3.07 30.86,6.71 6.29,3.63 9.05,5.47 4.15,7.89 -4.9,2.41 -17.46,5.4 -14.73,4.23 2.73,-1.17 20.73,-6.49 34.67,-7.43 13.95,-0.93 23.83,2.51 32.35,12.57 8.53,10.07 15.7,26.76 14.51,43.93 -1.19,17.18 -10.74,34.84 -17.1,48.81 -6.36,13.97 -9.51,24.26 -12.63,39.31 -3.12,15.06 -6.21,34.88 -8.9,52.77 -2.69,17.87 -4.98,33.8 -7.76,46.7 -2.78,12.91 -6.05,22.81 -10.71,32.43 -4.65,9.61 -10.69,18.94 -16.36,24.14 -5.67,5.21 -10.96,6.29 -16.12,5.02 -5.16,-1.26 -10.17,-4.88 -12.41,-12.15 -2.25,-7.28 -1.74,-18.22 -1.32,-31.04 0.4,-12.81 0.71,-27.51 1.17,-37.45 0.47,-9.95 1.08,-15.16 0.3,-20.06 -0.76,-4.89 -2.9,-9.49 -3.98,-11.89 -1.06,-2.4 -1.06,-2.62 1.7,-3.69 2.76,-1.08 8.27,-2.99 13.61,-2.43 5.36,0.56 10.56,3.63 10.72,3.63 0.15,0 -4.75,-3.05 -10.57,-3.52 -5.82,-0.46 -12.55,1.68 -17.52,5.01 -4.97,3.32 -8.19,7.81 -10.83,13.64 -2.64,5.84 -4.71,13.01 -6.04,21.5 -1.32,8.47 -1.92,18.26 -1.11,29.58 0.8,11.31 3,24.15 4.43,34.23 1.43,10.07 2.08,17.41 -0.66,23.16 -2.73,5.74 -8.85,9.92 -16.84,8.71 -7.97,-1.22 -17.81,-7.83 -25.8,-17.24l-0.03 -0.04z"/>
  </g>
 </g>
</svg>
