<svg width="800" height="400" viewBox="0 0 800 400" xmlns="http://www.w3.org/2000/svg"><defs><pattern id="satori_pattern_id_1" x="0" y="0" width="0.125" height="0.25" patternUnits="objectBoundingBox"><radialGradient id="satori_radial_id_1"><stop offset="0" stop-color="lightgray"/><stop offset="0.02" stop-color="lightgray"/><stop offset="0" stop-color="transparent"/><stop offset="1" stop-color="transparent"/></radialGradient><mask id="satori_mask_id_1"><rect x="0" y="0" width="100" height="100" fill="#fff"/></mask><rect x="0" y="0" width="100" height="100" fill="transparent"/><circle cx="75" cy="75" width="100" height="100" r="106.06601717798213" fill="url(#satori_radial_id_1)" mask="url(#satori_mask_id_1)"/></pattern><pattern id="satori_pattern_id_0" x="0" y="0" width="0.125" height="0.25" patternUnits="objectBoundingBox"><radialGradient id="satori_radial_id_0"><stop offset="0" stop-color="lightgray"/><stop offset="0.02" stop-color="lightgray"/><stop offset="0" stop-color="transparent"/><stop offset="1" stop-color="transparent"/></radialGradient><mask id="satori_mask_id_0"><rect x="0" y="0" width="100" height="100" fill="#fff"/></mask><rect x="0" y="0" width="100" height="100" fill="transparent"/><circle cx="25" cy="25" width="100" height="100" r="106.06601717798213" fill="url(#satori_radial_id_0)" mask="url(#satori_mask_id_0)"/></pattern></defs><mask id="satori_om-id"><rect x="0" y="0" width="800" height="400" fill="#fff"/></mask><rect x="0" y="0" width="800" height="400" fill="white"/><rect x="0" y="0" width="800" height="400" fill="url(#satori_pattern_id_1)"/><rect x="0" y="0" width="800" height="400" fill="url(#satori_pattern_id_0)"/><mask id="satori_om-id-0"><rect x="350" y="109" width="100" height="100" fill="#fff"/></mask><clipPath id="satori_cp-id-0-0"><rect x="350" y="109" width="100" height="100"/></clipPath><mask id="satori_om-id-0-0"><rect x="350" y="109" width="100" height="100" fill="#fff"/></mask><image x="350" y="109" width="100" height="100" href="data:image/svg+xml;utf8,%3Csvg  xmlns=%22http://www.w3.org/2000/svg%22 stroke-width=%222%22 stroke=%22black%22 fill=%22none%22 stroke-linecap=%22round%22 stroke-linejoin=%22round%22 width=%22NaN%22 height=%22null%22 viewBox=%220 0 24 24%22%3E%3Cpath stroke=%22none%22 d=%22M0 0h24v24H0z%22 fill=%22none%22%3E%3C/path%3E%3Cpath d=%22M7 8l-4 4l4 4%22%3E%3C/path%3E%3Cpath d=%22M17 8l4 4l-4 4%22%3E%3C/path%3E%3Cpath d=%22M14 4l-4 16%22%3E%3C/path%3E%3C/svg%3E" preserveAspectRatio="none" clip-path="url(#satori_cp-id-0-0)" mask="url(#satori_om-id-0-0)"/><mask id="satori_om-id-0-0-0"><rect x="350" y="109" width="0" height="100" fill="#fff"/></mask><mask id="satori_om-id-0-0-1"><rect x="350" y="109" width="0" height="100" fill="#fff"/></mask><mask id="satori_om-id-0-0-2"><rect x="350" y="109" width="0" height="100" fill="#fff"/></mask><mask id="satori_om-id-0-0-3"><rect x="350" y="109" width="0" height="100" fill="#fff"/></mask><mask id="satori_om-id-1"><rect x="175" y="219" width="450" height="72" fill="#fff"/></mask><mask id="satori_om-id-1-0"><rect x="175" y="219" width="450" height="72" fill="#fff"/></mask><path fill="black" d="M183.7 269.5L177.5 269.5L177.5 240.5L183.7 240.5L183.7 252.5L196.2 252.5L196.2 240.5L202.3 240.5L202.3 269.5L196.2 269.5L196.2 257.5L183.7 257.5L183.7 269.5ZM213.3 269.5L207.3 269.5L207.3 247.7L213.3 247.7L213.3 269.5ZM210.3 244.9L210.3 244.9Q208.9 244.9 208.0 244.0Q207.0 243.1 207.0 241.8L207.0 241.8Q207.0 240.6 208.0 239.7Q208.9 238.8 210.3 238.8L210.3 238.8Q211.6 238.8 212.6 239.7Q213.6 240.6 213.6 241.8L213.6 241.8Q213.6 243.1 212.6 244.0Q211.6 244.9 210.3 244.9ZM219.7 265.6L224.7 265.6L224.6 267.1Q224.4 269.0 223.9 270.9Q223.3 272.7 222.8 274.3Q222.2 275.8 221.9 276.6L221.9 276.6L218.0 276.6Q218.2 275.8 218.5 274.3Q218.9 272.8 219.2 271.0Q219.6 269.1 219.6 267.2L219.6 267.2L219.7 265.6Z M239.6 240.5L245.8 240.5L245.8 269.5L239.6 269.5L239.6 240.5ZM250.3 240.5L254.6 240.5L254.6 251.5L250.3 251.5L250.3 240.5ZM265.2 269.5L259.1 269.5L259.1 247.7L264.9 247.7L264.9 251.6L265.1 251.6Q265.8 249.7 267.4 248.6Q269.0 247.4 271.2 247.4L271.2 247.4Q273.5 247.4 275.0 248.6Q276.6 249.7 277.1 251.6L277.1 251.6L277.4 251.6Q278.0 249.7 279.8 248.6Q281.5 247.4 283.9 247.4L283.9 247.4Q287.0 247.4 288.9 249.4Q290.8 251.3 290.8 254.9L290.8 254.9L290.8 269.5L284.8 269.5L284.8 256.1Q284.8 254.2 283.8 253.3Q282.8 252.4 281.4 252.4L281.4 252.4Q279.7 252.4 278.8 253.5Q277.9 254.5 277.9 256.2L277.9 256.2L277.9 269.5L272.0 269.5L272.0 255.9Q272.0 254.3 271.1 253.4Q270.2 252.4 268.7 252.4L268.7 252.4Q267.7 252.4 266.9 252.9Q266.1 253.4 265.6 254.3Q265.2 255.2 265.2 256.4L265.2 256.4L265.2 269.5Z M311.1 269.5L305.0 269.5L305.0 240.5L316.4 240.5Q319.7 240.5 322.1 241.6Q324.4 242.8 325.6 244.9Q326.9 247.1 326.9 250.0L326.9 250.0Q326.9 252.9 325.6 254.9Q324.4 257.0 322.0 258.1Q319.6 259.2 316.3 259.2L316.3 259.2L308.6 259.2L308.6 254.3L315.3 254.3Q317.1 254.3 318.2 253.8Q319.4 253.3 320.0 252.4Q320.5 251.4 320.5 250.0L320.5 250.0Q320.5 248.5 320.0 247.5Q319.4 246.5 318.2 246.0Q317.0 245.5 315.3 245.5L315.3 245.5L311.1 245.5L311.1 269.5ZM314.0 256.3L320.7 256.3L327.9 269.5L321.1 269.5L314.0 256.3ZM337.2 269.5L331.1 269.5L331.1 247.7L337.2 247.7L337.2 269.5ZM334.1 244.9L334.1 244.9Q332.8 244.9 331.8 244.0Q330.9 243.1 330.9 241.8L330.9 241.8Q330.9 240.6 331.8 239.7Q332.8 238.8 334.1 238.8L334.1 238.8Q335.5 238.8 336.5 239.7Q337.4 240.6 337.4 241.8L337.4 241.8Q337.4 243.1 336.5 244.0Q335.5 244.9 334.1 244.9ZM351.8 270.0L351.8 270.0Q348.5 270.0 346.1 268.5Q343.7 267.1 342.4 264.6Q341.1 262.0 341.1 258.7L341.1 258.7Q341.1 255.4 342.4 252.8Q343.7 250.3 346.1 248.9Q348.5 247.4 351.8 247.4L351.8 247.4Q354.7 247.4 356.8 248.5Q359.0 249.5 360.2 251.4Q361.5 253.3 361.6 255.8L361.6 255.8L355.9 255.8Q355.6 254.2 354.6 253.2Q353.6 252.2 351.9 252.2L351.9 252.2Q350.5 252.2 349.5 252.9Q348.4 253.7 347.8 255.1Q347.3 256.6 347.3 258.6L347.3 258.6Q347.3 260.7 347.8 262.2Q348.4 263.7 349.5 264.4Q350.5 265.2 351.9 265.2L351.9 265.2Q353.0 265.2 353.8 264.8Q354.6 264.3 355.2 263.5Q355.7 262.7 355.9 261.5L355.9 261.5L361.6 261.5Q361.4 264.0 360.2 265.9Q359.0 267.8 356.9 268.9Q354.8 270.0 351.8 270.0ZM371.5 256.9L371.5 256.9L371.5 269.5L365.5 269.5L365.5 240.5L371.4 240.5L371.4 251.6L371.6 251.6Q372.4 249.6 374.0 248.5Q375.7 247.4 378.1 247.4L378.1 247.4Q380.4 247.4 382.1 248.4Q383.8 249.4 384.8 251.3Q385.7 253.1 385.7 255.7L385.7 255.7L385.7 269.5L379.6 269.5L379.6 256.7Q379.6 254.7 378.6 253.6Q377.6 252.5 375.7 252.5L375.7 252.5Q374.5 252.5 373.6 253.0Q372.6 253.5 372.1 254.5Q371.5 255.5 371.5 256.9ZM396.7 270.0L396.7 270.0Q394.6 270.0 393.0 269.2Q391.3 268.5 390.4 267.1Q389.4 265.6 389.4 263.5L389.4 263.5Q389.4 261.6 390.1 260.4Q390.8 259.2 391.9 258.4Q393.1 257.7 394.5 257.3Q396.0 256.9 397.6 256.7L397.6 256.7Q399.5 256.5 400.7 256.4Q401.9 256.2 402.4 255.8Q402.9 255.5 402.9 254.8L402.9 254.8L402.9 254.7Q402.9 253.3 402.1 252.6Q401.2 251.9 399.7 251.9L399.7 251.9Q398.0 251.9 397.1 252.6Q396.1 253.3 395.8 254.4L395.8 254.4L390.2 253.9Q390.6 251.9 391.9 250.5Q393.1 249.0 395.1 248.2Q397.1 247.4 399.7 247.4L399.7 247.4Q401.5 247.4 403.2 247.9Q404.9 248.3 406.2 249.2Q407.5 250.1 408.2 251.5Q409.0 252.9 409.0 254.8L409.0 254.8L409.0 269.5L403.2 269.5L403.2 266.5L403.1 266.5Q402.5 267.5 401.6 268.3Q400.8 269.1 399.5 269.5Q398.3 270.0 396.7 270.0ZM398.4 265.8L398.4 265.8Q399.7 265.8 400.8 265.2Q401.8 264.7 402.4 263.8Q403.0 262.9 403.0 261.7L403.0 261.7L403.0 259.4Q402.7 259.6 402.2 259.8Q401.7 259.9 401.1 260.0Q400.5 260.2 399.9 260.2Q399.2 260.3 398.8 260.4L398.8 260.4Q397.7 260.6 396.9 260.9Q396.1 261.3 395.7 261.8Q395.2 262.4 395.2 263.3L395.2 263.3Q395.2 264.5 396.1 265.1Q397.0 265.8 398.4 265.8ZM419.7 269.5L413.7 269.5L413.7 247.7L419.5 247.7L419.5 251.5L419.8 251.5Q420.4 249.5 421.8 248.5Q423.2 247.4 425.0 247.4L425.0 247.4Q425.5 247.4 426.0 247.5Q426.5 247.5 426.9 247.6L426.9 247.6L426.9 253.0Q426.5 252.9 425.7 252.8Q425.0 252.7 424.3 252.7L424.3 252.7Q423.0 252.7 422.0 253.2Q420.9 253.8 420.3 254.8Q419.7 255.9 419.7 257.2L419.7 257.2L419.7 269.5ZM437.0 269.9L437.0 269.9Q434.5 269.9 432.5 268.6Q430.5 267.3 429.4 264.8Q428.2 262.3 428.2 258.7L428.2 258.7Q428.2 254.9 429.4 252.4Q430.6 249.9 432.6 248.7Q434.6 247.4 437.0 247.4L437.0 247.4Q438.8 247.4 440.1 248.1Q441.3 248.7 442.1 249.6Q442.8 250.5 443.2 251.4L443.2 251.4L443.4 251.4L443.4 240.5L449.4 240.5L449.4 269.5L443.5 269.5L443.5 266.1L443.2 266.1Q442.8 267.0 442.0 267.8Q441.3 268.7 440.0 269.3Q438.8 269.9 437.0 269.9ZM438.9 265.1L438.9 265.1Q440.4 265.1 441.4 264.3Q442.4 263.5 443.0 262.0Q443.5 260.6 443.5 258.6L443.5 258.6Q443.5 256.7 443.0 255.3Q442.5 253.8 441.4 253.0Q440.4 252.3 438.9 252.3L438.9 252.3Q437.5 252.3 436.4 253.1Q435.4 253.9 434.9 255.3Q434.4 256.7 434.4 258.6L434.4 258.6Q434.4 260.5 434.9 262.0Q435.4 263.5 436.4 264.3Q437.5 265.1 438.9 265.1Z M471.0 269.5L464.8 269.5L464.8 240.5L471.0 240.5L471.0 252.5L483.5 252.5L483.5 240.5L489.6 240.5L489.6 269.5L483.5 269.5L483.5 257.5L471.0 257.5L471.0 269.5ZM508.5 260.3L508.5 260.3L508.5 247.7L514.6 247.7L514.6 269.5L508.8 269.5L508.8 265.6L508.6 265.6Q507.8 267.5 506.1 268.7Q504.4 269.8 501.9 269.8L501.9 269.8Q499.7 269.8 498.1 268.8Q496.4 267.8 495.5 266.0Q494.6 264.2 494.5 261.6L494.5 261.6L494.5 247.7L500.6 247.7L500.6 260.5Q500.6 262.5 501.6 263.6Q502.7 264.7 504.4 264.7L504.4 264.7Q505.5 264.7 506.4 264.2Q507.4 263.7 508.0 262.7Q508.6 261.7 508.5 260.3ZM525.6 270.0L525.6 270.0Q523.6 270.0 521.9 269.2Q520.3 268.5 519.3 267.1Q518.4 265.6 518.4 263.5L518.4 263.5Q518.4 261.6 519.1 260.4Q519.7 259.2 520.9 258.4Q522.0 257.7 523.5 257.3Q525.0 256.9 526.6 256.7L526.6 256.7Q528.5 256.5 529.7 256.4Q530.8 256.2 531.3 255.8Q531.9 255.5 531.9 254.8L531.9 254.8L531.9 254.7Q531.9 253.3 531.0 252.6Q530.2 251.9 528.6 251.9L528.6 251.9Q527.0 251.9 526.0 252.6Q525.1 253.3 524.8 254.4L524.8 254.4L519.2 253.9Q519.6 251.9 520.8 250.5Q522.1 249.0 524.1 248.2Q526.1 247.4 528.7 247.4L528.7 247.4Q530.5 247.4 532.2 247.9Q533.8 248.3 535.1 249.2Q536.4 250.1 537.2 251.5Q537.9 252.9 537.9 254.8L537.9 254.8L537.9 269.5L532.2 269.5L532.2 266.5L532.0 266.5Q531.5 267.5 530.6 268.3Q529.7 269.1 528.5 269.5Q527.3 270.0 525.6 270.0ZM527.4 265.8L527.4 265.8Q528.7 265.8 529.7 265.2Q530.8 264.7 531.3 263.8Q531.9 262.9 531.9 261.7L531.9 261.7L531.9 259.4Q531.6 259.6 531.1 259.8Q530.7 259.9 530.0 260.0Q529.4 260.2 528.8 260.2Q528.2 260.3 527.7 260.4L527.7 260.4Q526.6 260.6 525.9 260.9Q525.1 261.3 524.6 261.8Q524.2 262.4 524.2 263.3L524.2 263.3Q524.2 264.5 525.1 265.1Q526.0 265.8 527.4 265.8ZM548.7 269.5L542.6 269.5L542.6 247.7L548.4 247.7L548.4 251.6L548.7 251.6Q549.3 249.7 550.9 248.6Q552.5 247.4 554.7 247.4L554.7 247.4Q557.0 247.4 558.6 248.6Q560.1 249.7 560.7 251.6L560.7 251.6L560.9 251.6Q561.5 249.7 563.3 248.6Q565.1 247.4 567.5 247.4L567.5 247.4Q570.5 247.4 572.4 249.4Q574.3 251.3 574.3 254.9L574.3 254.9L574.3 269.5L568.3 269.5L568.3 256.1Q568.3 254.2 567.3 253.3Q566.4 252.4 564.9 252.4L564.9 252.4Q563.3 252.4 562.3 253.5Q561.4 254.5 561.4 256.2L561.4 256.2L561.4 269.5L555.6 269.5L555.6 255.9Q555.6 254.3 554.6 253.4Q553.7 252.4 552.2 252.4L552.2 252.4Q551.2 252.4 550.4 252.9Q549.6 253.4 549.1 254.3Q548.7 255.2 548.7 256.4L548.7 256.4L548.7 269.5ZM585.3 270.0L585.3 270.0Q583.2 270.0 581.6 269.2Q580.0 268.5 579.0 267.1Q578.1 265.6 578.1 263.5L578.1 263.5Q578.1 261.6 578.8 260.4Q579.4 259.2 580.6 258.4Q581.7 257.7 583.2 257.3Q584.7 256.9 586.3 256.7L586.3 256.7Q588.2 256.5 589.3 256.4Q590.5 256.2 591.0 255.8Q591.6 255.5 591.6 254.8L591.6 254.8L591.6 254.7Q591.6 253.3 590.7 252.6Q589.9 251.9 588.3 251.9L588.3 251.9Q586.7 251.9 585.7 252.6Q584.8 253.3 584.4 254.4L584.4 254.4L578.8 253.9Q579.3 251.9 580.5 250.5Q581.8 249.0 583.8 248.2Q585.7 247.4 588.4 247.4L588.4 247.4Q590.2 247.4 591.8 247.9Q593.5 248.3 594.8 249.2Q596.1 250.1 596.9 251.5Q597.6 252.9 597.6 254.8L597.6 254.8L597.6 269.5L591.9 269.5L591.9 266.5L591.7 266.5Q591.2 267.5 590.3 268.3Q589.4 269.1 588.2 269.5Q586.9 270.0 585.3 270.0ZM587.1 265.8L587.1 265.8Q588.4 265.8 589.4 265.2Q590.4 264.7 591.0 263.8Q591.6 262.9 591.6 261.7L591.6 261.7L591.6 259.4Q591.3 259.6 590.8 259.8Q590.3 259.9 589.7 260.0Q589.1 260.2 588.5 260.2Q587.9 260.3 587.4 260.4L587.4 260.4Q586.3 260.6 585.5 260.9Q584.7 261.3 584.3 261.8Q583.9 262.4 583.9 263.3L583.9 263.3Q583.9 264.5 584.8 265.1Q585.7 265.8 587.1 265.8ZM608.4 256.9L608.4 256.9L608.4 269.5L602.3 269.5L602.3 247.7L608.1 247.7L608.1 251.6L608.3 251.6Q609.1 249.7 610.8 248.6Q612.5 247.4 614.9 247.4L614.9 247.4Q617.2 247.4 618.9 248.4Q620.6 249.4 621.5 251.3Q622.4 253.1 622.4 255.7L622.4 255.7L622.4 269.5L616.4 269.5L616.4 256.7Q616.4 254.7 615.4 253.6Q614.3 252.5 612.5 252.5L612.5 252.5Q611.3 252.5 610.3 253.0Q609.4 253.5 608.9 254.5Q608.4 255.5 608.4 256.9Z "/></svg>