<?xml version="1.0" encoding="UTF-8"?>
<!DOCTYPE svg PUBLIC "-//W3C//DTD SVG 1.1//EN" "http://www.w3.org/Graphics/SVG/1.1/DTD/svg11.dtd">
<!-- Creator: CorelDRAW 2019 (64-Bit) -->
<svg xmlns="http://www.w3.org/2000/svg" xml:space="preserve" width="4.2332mm" height="4.2332mm" version="1.1" style="shape-rendering:geometricPrecision; text-rendering:geometricPrecision; image-rendering:optimizeQuality; fill-rule:evenodd; clip-rule:evenodd"
viewBox="0 0 423.32 423.32"
 xmlns:xlink="http://www.w3.org/1999/xlink">
 <defs>
  <style type="text/css">
   <![CDATA[
    .fil0 {fill:#418B38}
    .fil1 {fill:white}
   ]]>
  </style>
 </defs>
 <g id="Capa_x0020_1">
  <metadata id="CorelCorpID_0Corel-Layer"/>
  <circle class="fil0" cx="211.66" cy="211.66" r="211.67"/>
  <g id="_2781835701680">
   <path class="fil1" d="M167.79 236.2c8.39,9.23 49.2,33.79 61.81,41.45l16.12 -52.72c17.98,13.05 35.71,28.44 54.01,40.86l50.53 -17.15c-8.98,-11.18 -89.41,-62.08 -90.97,-69.13 -1.16,-5.2 26.04,-82.4 25.45,-94.17l-51.17 17.92c-6.07,16.41 -5.07,33.71 -11.44,50.16 -12.12,-5.09 -27.89,-23.76 -39.63,-32.68l-53.28 18.2c37.12,-5.1 68.74,34.7 58.59,69.99 -5,17.4 -11.7,14.78 -20.02,27.27z"/>
   <path class="fil1" d="M146.22 318.98l39.19 -13.75c-3,-5.85 -21.93,-19.36 -28.7,-24.57 -8.48,-6.53 -23.33,-19.31 -30.46,-22.44l19.97 60.76z"/>
   <path class="fil1" d="M114.57 226.65c17.1,-6.14 33.21,-12.94 26.7,-31.94 -6.54,-19.07 -22.89,-15.27 -40.81,-9.28l14.11 41.22z"/>
  </g>
 </g>
</svg>
